<svg width="100%" height="100%" viewBox="0 0 2048 2048" version="1.1"
    xmlns="http://www.w3.org/2000/svg" xmlns:xlink="http://www.w3.org/1999/xlink"
    xml:space="preserve" xmlns:serif="http://www.serif.com/"
    style="fill-rule:evenodd;clip-rule:evenodd;stroke-linejoin:round;stroke-miterlimit:2;">
    <g transform="matrix(1.05777,0,0,1.05777,108.5,108.5)">
        <path d="M1731,432.75C1731,193.909 1537.09,0 1298.25,0L432.75,0C193.909,0 0,193.909 0,432.75L0,1298.25C0,1537.09 193.909,1731 432.75,1731L1298.25,1731C1537.09,1731 1731,1537.09 1731,1298.25L1731,432.75Z" style="fill:white;"/>
    </g>
    <g id="Слой1">
        <g transform="matrix(1180.68,0,0,1180.68,267.742,1425.66)">
            <path d="M0.68,-0.122L0.395,-0.68L0.11,-0.122L0.049,0L0.185,0L0.247,-0.122L0.395,-0.413L0.544,-0.122L0.606,0L0.742,0L0.68,-0.122Z" style="fill-rule:nonzero;"/>
        </g>
        <g transform="matrix(538.894,1050.53,-1050.53,538.894,795.051,591.214)">
            <path d="M0.68,-0.122L0.395,-0.68L0.11,-0.122L0.049,0L0.185,0L0.247,-0.122L0.395,-0.413L0.544,-0.122L0.606,0L0.742,0L0.68,-0.122Z" style="fill-rule:nonzero;"/>
        </g>
    </g>
</svg>