
<svg xmlns="http://www.w3.org/2000/svg" version="1.1" xmlns:xlink="http://www.w3.org/1999/xlink" preserveAspectRatio="none" x="0px" y="0px" width="64px" height="64px" viewBox="0 0 64 64">
<defs>
<g id="Layer0_1_FILL">
<path fill="#FFFFFF" stroke="none" d="
M 38.6 27.4
L 37.6 26.15
Q 35.3 23.85 31.85 23.85 28.5 23.85 26.1 26.15
L 25 27.4
Q 23.65 29.45 23.65 32 23.65 34.3 24.7 36.05
L 26.1 37.85
Q 28.5 40.25 31.85 40.2 35.3 40.2 37.6 37.85
L 39 36.05
Q 40.05 34.2 40.05 32 40.05 29.45 38.6 27.4
M 30.8 30.75
Q 31.2 30.3 31.9 30.3 32.55 30.3 33 30.75 33.45 31.25 33.45 31.8 33.45 32.55 33 32.9 32.55 33.35 31.9 33.35 31.2 33.35 30.8 32.9 30.35 32.45 30.35 31.8 30.35 31.3 30.8 30.75 Z"/>
</g>

<path id="Layer0_0_1_STROKES" stroke="#FFFFFF" stroke-width="1" stroke-linejoin="round" stroke-linecap="round" fill="none" d="
M 63 32
Q 63 44.85 53.85 53.85 44.8 63 32 63 19.2 63 10 53.85 1 44.85 1 32 1 19.2 10 10.05 19.2 1 32 1 44.8 1 53.85 10.05 63 19.2 63 32 Z"/>
</defs>

<g transform="matrix( 1, 0, 0, 1, 0,0) ">
<use xlink:href="#Layer0_0_1_STROKES"/>
</g>

<g transform="matrix( 1, 0, 0, 1, 0,0) ">
<use xlink:href="#Layer0_1_FILL"/>
</g>
</svg>
