
<svg xmlns="http://www.w3.org/2000/svg" version="1.1" xmlns:xlink="http://www.w3.org/1999/xlink" preserveAspectRatio="none" x="0px" y="0px" width="64px" height="64px" viewBox="0 0 64 64">
<defs>
<g id="Layer0_0_FILL">
<path fill="#101010" stroke="none" d="
M -6.8 -4.5
L -28.15 -13.95
Q -31.3 -7.6173828125 -31.3 0 -31.3 9.0162109375 -26.9 16.2
L -7.15 3.95
Q -8.15 2.1751953125 -8.15 0 -8.15 -2.5375 -6.8 -4.5
M 28.05 -14.05
L 6.45 -4.55
Q 7.85 -2.559375 7.85 0 7.85 2.1888671875 6.8 3.95
L 26.75 16.3
Q 26.90703125 16.08671875 27.05 15.85 31.3 8.8017578125 31.3 0 31.3 -7.6845703125 28.05 -14.05 Z"/>

<path fill="#171717" stroke="none" d="
M 5.5 -5.7
Q 6.0544921875 -5.1455078125 6.45 -4.55
L 28.05 -14.05
Q 27.4064453125 -15.3259765625 26.6 -16.55 25.6775390625 -18.0392578125 24.5 -19.45 23.4119140625 -20.8380859375 22.1 -22.15 12.95 -31.3 0 -31.3 -12.95 -31.3 -22.15 -22.15 -23.4546875 -20.8380859375 -24.6 -19.45 -25.7078125 -18.0392578125 -26.65 -16.55 -27.4611328125 -15.27265625 -28.15 -13.95
L -6.8 -4.5
Q -6.369921875 -5.130078125 -5.8 -5.7 -3.45 -8 -0.15 -8 3.2 -8 5.5 -5.7
M 22.1 22.1
Q 24.8369140625 19.378125 26.75 16.3
L 6.8 3.95
Q 6.2912109375 4.8587890625 5.5 5.65 3.2 8 -0.15 8 -3.45 8 -5.8 5.65 -6.6009765625 4.8490234375 -7.15 3.95
L -26.9 16.2
Q -24.9294921875 19.3205078125 -22.15 22.1 -12.95 31.3 0 31.3 2.1001953125 31.3 4.1 31.05 14.4337890625 29.8080078125 22.1 22.1 Z"/>

<path fill="#990033" stroke="none" d="
M 6.45 -4.55
Q 6.0544921875 -5.1455078125 5.5 -5.7 3.2 -8 -0.15 -8 -3.45 -8 -5.8 -5.7 -6.369921875 -5.130078125 -6.8 -4.5 -8.15 -2.5375 -8.15 0 -8.15 2.1751953125 -7.15 3.95 -6.6009765625 4.8490234375 -5.8 5.65 -3.45 8 -0.15 8 3.2 8 5.5 5.65 6.2912109375 4.8587890625 6.8 3.95 7.85 2.1888671875 7.85 0 7.85 -2.559375 6.45 -4.55
M 1 -1.2
Q 1.45 -0.75 1.45 -0.15 1.45 0.45 1 0.9 0.55 1.35 -0.1 1.35 -0.75 1.35 -1.15 0.9 -1.6 0.45 -1.6 -0.15 -1.6 -0.75 -1.15 -1.2 -0.75 -1.7 -0.1 -1.7 0.55 -1.7 1 -1.2 Z"/>
</g>
</defs>

<g transform="matrix( 1, 0, 0, 1, 31.95,32.05) ">
<g transform="matrix( 1, 0, 0, 1, 0,0) ">
<use xlink:href="#Layer0_0_FILL"/>
</g>
</g>
</svg>
